<?xml version="1.0" standalone="no"?>
<!DOCTYPE svg PUBLIC "-//W3C//DTD SVG 20010904//EN"
 "http://www.w3.org/TR/2001/REC-SVG-20010904/DTD/svg10.dtd">
<svg version="1.0" xmlns="http://www.w3.org/2000/svg"
 width="1005.000000pt" height="1280.000000pt" viewBox="0 0 1005.000000 1280.000000"
 preserveAspectRatio="xMidYMid meet">
<metadata>
Created by potrace 1.15, written by Peter Selinger 2001-2017
</metadata>
<g transform="translate(0.000000,1280.000000) scale(0.100000,-0.100000)"
fill="#000000" stroke="none">
<path d="M7553 12784 c-39 -19 -66 -60 -93 -139 -23 -68 -52 -116 -79 -132
-11 -7 -67 -15 -126 -19 l-106 -7 -30 29 c-37 35 -61 80 -83 157 -9 32 -23 60
-31 63 -7 3 -40 0 -71 -6 -67 -14 -114 -53 -114 -95 0 -80 -94 -155 -192 -155
-64 0 -109 15 -258 85 -74 35 -144 65 -155 68 -15 4 -30 -7 -60 -46 -51 -65
-110 -96 -185 -96 -90 -1 -169 48 -206 125 -18 39 -67 64 -121 64 -54 -1 -75
-16 -125 -90 -55 -83 -92 -104 -178 -104 -51 0 -75 5 -110 24 -55 31 -110 101
-110 141 0 45 -39 79 -91 79 -23 0 -58 -5 -79 -11 -34 -10 -39 -16 -53 -68
-19 -69 -46 -105 -99 -132 -122 -62 -272 -16 -314 99 -10 26 -22 53 -27 60
-12 15 -74 16 -134 0 -41 -10 -50 -18 -84 -72 -51 -82 -80 -98 -182 -99 -98
-2 -134 14 -187 86 -28 39 -45 51 -85 62 -45 14 -57 13 -103 0 -31 -9 -58 -25
-67 -38 -24 -37 -113 -99 -157 -108 -54 -13 -139 5 -177 36 -15 13 -40 51 -55
85 -31 69 -46 74 -91 31 -16 -16 -57 -38 -90 -50 -33 -12 -81 -33 -107 -47
-96 -51 -189 -66 -259 -43 -47 16 -99 56 -99 77 0 35 -41 83 -87 104 -81 36
-163 7 -163 -58 0 -32 -56 -93 -105 -115 -74 -34 -176 -19 -234 34 -13 12 -34
39 -48 60 -33 53 -77 77 -139 77 -61 0 -80 -13 -127 -85 -17 -27 -47 -60 -66
-72 -31 -21 -43 -23 -110 -18 -152 12 -178 26 -201 113 -22 84 -32 92 -103 92
-87 0 -122 -20 -177 -103 -28 -43 -58 -76 -80 -88 -40 -21 -124 -25 -185 -8
-46 13 -125 86 -125 116 0 28 -40 43 -115 43 -79 0 -95 -6 -95 -35 0 -45 -177
-185 -233 -185 -9 0 -31 9 -49 20 -18 11 -37 20 -43 20 -5 0 -22 -24 -37 -53
-21 -41 -27 -71 -32 -147 -3 -66 -1 -103 7 -120 7 -14 47 -45 92 -71 52 -29
86 -56 99 -78 25 -43 35 -171 16 -207 -7 -13 -55 -56 -106 -95 -89 -68 -93
-73 -100 -117 -9 -57 12 -124 41 -132 11 -3 46 -22 78 -43 77 -49 101 -100
102 -207 0 -92 -16 -118 -109 -181 -70 -47 -86 -77 -86 -162 0 -37 5 -49 26
-66 15 -12 33 -21 42 -21 28 0 80 -40 97 -76 28 -59 39 -143 25 -193 -15 -57
-90 -133 -150 -152 -41 -13 -47 -19 -67 -70 -12 -31 -25 -75 -29 -97 l-7 -42
59 0 c79 0 137 -29 169 -84 47 -80 23 -186 -65 -296 -69 -86 -87 -118 -99
-172 -13 -59 -1 -94 36 -109 85 -33 115 -52 133 -81 29 -49 35 -107 15 -174
-19 -68 -22 -71 -97 -154 -61 -66 -75 -103 -65 -167 7 -43 34 -73 78 -87 46
-15 72 -56 80 -124 12 -104 -34 -172 -117 -172 -102 0 -117 -35 -78 -179 34
-125 41 -138 79 -151 41 -13 79 -53 104 -110 54 -119 -5 -259 -121 -291 -106
-28 -115 -49 -67 -147 26 -52 45 -73 93 -108 83 -59 91 -68 104 -113 37 -121
-10 -242 -118 -306 -44 -26 -72 -76 -72 -126 1 -49 20 -72 82 -104 145 -74
161 -216 37 -326 -35 -30 -50 -54 -66 -101 -43 -126 -20 -200 75 -242 41 -18
67 -75 71 -156 4 -58 1 -71 -27 -117 -23 -40 -42 -59 -80 -78 -77 -39 -90 -58
-90 -131 0 -73 22 -107 96 -150 83 -49 121 -118 111 -205 -3 -26 -13 -62 -22
-80 -23 -43 -90 -114 -134 -141 -46 -28 -51 -35 -51 -82 0 -40 17 -61 127
-156 70 -60 92 -190 48 -284 -18 -36 -50 -56 -95 -56 -41 0 -58 -22 -65 -87
-3 -32 -7 -77 -10 -100 -5 -45 3 -56 47 -67 68 -16 127 -101 135 -196 8 -86
-8 -121 -77 -171 -71 -53 -84 -73 -104 -169 -15 -74 -9 -107 18 -97 25 9 105
-44 143 -95 19 -27 23 -44 23 -104 0 -40 -5 -85 -10 -99 -6 -15 -41 -57 -79
-93 -69 -68 -114 -140 -126 -203 -7 -37 4 -48 61 -64 40 -11 103 -64 122 -102
25 -49 35 -133 23 -181 -15 -55 -72 -108 -137 -127 -47 -14 -58 -21 -70 -51
-27 -63 6 -136 74 -166 69 -30 110 -74 128 -136 33 -113 -24 -237 -119 -258
-93 -20 -122 -73 -91 -170 15 -48 24 -59 78 -95 76 -51 114 -86 132 -121 19
-36 18 -138 -2 -187 -16 -40 -45 -58 -146 -90 -48 -16 -54 -25 -61 -96 -9 -86
5 -110 93 -164 98 -60 120 -99 119 -214 -1 -95 -8 -110 -91 -171 -68 -51 -104
-95 -118 -145 -13 -47 -1 -62 68 -89 60 -23 132 -86 132 -116 0 -7 25 -46 55
-87 30 -41 58 -85 61 -99 10 -37 31 -57 80 -76 63 -24 89 -9 162 89 85 115 96
124 167 130 100 8 124 -16 156 -157 11 -46 19 -60 39 -69 36 -14 158 -9 192 9
15 8 53 48 82 88 87 117 102 126 201 126 76 0 86 -2 115 -26 43 -37 89 -120
96 -177 8 -57 33 -72 96 -62 57 10 94 47 138 140 35 73 45 85 83 104 49 24 75
26 149 10 90 -20 144 -71 162 -154 9 -39 24 -58 61 -77 47 -24 90 -30 134 -18
43 11 45 15 54 97 6 51 56 126 94 141 15 6 60 13 98 16 55 4 79 1 110 -13 58
-26 72 -44 96 -122 l21 -69 40 0 c90 0 126 18 189 94 68 83 108 112 166 121
71 11 102 -2 178 -75 78 -76 128 -106 198 -119 53 -9 58 -6 76 50 26 80 121
139 223 139 89 0 178 -56 178 -112 0 -40 25 -94 48 -107 26 -14 80 -14 119 0
27 9 82 67 170 177 34 43 169 47 214 6 10 -9 34 -44 55 -79 36 -62 39 -65 92
-76 30 -6 75 -8 100 -4 48 7 64 20 134 113 60 80 124 99 220 67 35 -13 52 -26
77 -64 69 -108 158 -157 236 -130 39 14 46 23 81 102 21 48 85 86 156 94 110
11 204 -43 215 -124 3 -24 11 -47 17 -51 6 -5 44 -19 84 -31 39 -12 72 -26 72
-32 0 -6 10 -9 23 -7 19 3 23 11 29 57 12 105 111 191 217 191 71 0 93 -17
114 -83 33 -103 106 -157 212 -157 69 0 84 8 91 49 20 113 163 216 272 196 46
-8 115 -78 142 -141 12 -27 32 -52 52 -64 70 -43 137 -72 152 -67 9 4 17 25
21 54 12 96 68 172 143 193 49 13 148 13 175 -1 41 -21 89 -74 114 -127 27
-58 61 -79 143 -89 50 -6 50 -6 96 105 21 52 78 105 129 122 80 26 200 -13
228 -74 8 -17 17 -60 21 -95 7 -73 34 -124 76 -146 56 -29 65 -23 122 88 59
113 143 211 193 223 38 9 170 -9 192 -27 9 -8 28 -41 43 -74 36 -80 72 -120
125 -140 52 -20 87 -14 102 17 75 161 83 174 124 201 61 39 139 38 214 -2 71
-38 95 -33 95 21 0 56 -32 110 -88 150 -44 32 -50 42 -71 111 -21 73 -22 79
-7 130 20 68 55 101 147 136 l74 28 3 53 c4 74 -9 98 -93 169 -83 69 -111 109
-121 167 -7 46 9 113 34 144 11 13 56 36 108 54 106 38 110 48 66 147 -26 56
-39 72 -101 118 -47 35 -79 68 -93 94 -23 47 -30 123 -16 176 13 47 68 97 121
112 104 28 100 24 93 98 -3 36 -6 86 -6 110 0 43 -3 48 -95 137 l-95 92 0 75
c0 73 1 76 35 106 41 36 99 54 178 54 62 0 71 12 42 51 -8 11 -15 36 -15 56 0
50 -40 105 -87 121 -116 38 -173 108 -173 214 0 113 60 179 170 189 65 6 84
20 76 59 -10 47 -58 147 -71 147 -19 0 -114 106 -132 147 -9 22 -18 79 -21
134 -5 112 -4 113 105 150 70 23 79 33 89 106 12 93 -27 153 -135 208 -38 19
-52 33 -65 65 -33 82 -14 146 68 239 54 61 81 134 71 197 -5 34 -18 58 -57
102 -102 117 -124 190 -84 280 22 48 65 73 158 92 95 19 98 24 90 168 -5 93
-11 125 -22 132 -8 5 -42 10 -76 10 -53 0 -64 3 -87 28 -77 81 -80 217 -4 299
11 12 42 30 69 39 55 18 68 36 68 93 0 67 -33 127 -87 159 -79 45 -100 72
-108 133 -9 69 8 135 43 173 28 29 121 76 151 76 30 0 44 60 30 132 -15 75
-46 114 -104 129 -109 30 -157 161 -100 276 32 63 55 79 128 88 31 4 63 12 72
19 25 18 30 86 11 143 -14 41 -31 62 -101 123 -47 41 -92 84 -100 97 -10 15
-15 49 -15 106 0 69 3 87 18 100 10 10 21 14 25 11 13 -13 79 8 111 37 54 47
66 144 27 217 -7 14 -43 37 -87 57 -90 41 -103 63 -105 182 -3 115 37 193 99
193 37 0 90 34 103 67 18 47 1 102 -48 154 -24 26 -59 54 -76 63 -39 18 -70
71 -86 148 -23 106 15 175 116 211 78 28 123 86 123 158 0 38 -34 71 -119 119
-82 45 -106 86 -105 186 0 62 4 78 30 120 27 44 35 50 90 64 84 22 113 46 113
90 0 19 -8 57 -17 85 -18 51 -24 57 -114 94 -61 25 -76 51 -90 155 -9 76 -9
92 7 132 10 25 31 61 47 80 27 30 35 34 82 34 82 0 86 7 78 129 -7 91 -10 105
-31 122 -13 10 -34 19 -48 19 -92 0 -159 122 -133 245 15 70 36 92 115 121
110 40 120 57 89 147 -16 46 -32 65 -144 165 l-45 41 -3 109 c-3 102 -2 110
20 135 12 14 54 44 93 65 87 49 112 89 93 148 -13 39 -25 49 -140 119 -47 29
-79 94 -86 170 -4 56 -1 71 26 130 l32 66 -33 13 c-17 8 -52 17 -77 21 -53 8
-65 18 -136 107 -60 74 -103 96 -168 84 -41 -8 -86 -59 -86 -98 0 -34 -48 -76
-105 -94 -61 -18 -89 -18 -153 1 -67 20 -119 65 -132 116 -13 48 -36 59 -122
58 -81 -1 -106 -12 -114 -46 -18 -76 -59 -111 -151 -133 -105 -24 -207 21
-245 109 -37 87 -63 97 -161 61 -40 -15 -71 -38 -121 -90 -58 -59 -73 -70
-112 -76 -56 -8 -118 1 -156 24 -54 32 -116 155 -105 210 3 15 -1 39 -9 54
-17 33 -59 37 -111 12z"/>
</g>
</svg>
